# xmcd
#
# Track frame offsets:
#	182
#	24252
#	36752
#	51787
#	61465
#	81772
#	99777
#	111457
#	137230
#	161067
#	172990
#	190997
#	208652
#	227402
#	241860
#	259550
#	273772
#	294120
#
# Disc length: 4252 seconds
#
# Revision: 0
# Processed by: cddbd v1.5.2PL0 Copyright (c) Steve Scherf et al.
# Submitted via: EasyCDDAExtractor 16.0.6.1
#
DISCID=ea109a12
DTITLE=Άνευ ερμηνευτού - The Classic Experience 4.1
DYEAR=1993
DGENRE=Κλασική
TTITLE0=Άνευ ερμηνευτού - Russlan and Ludmilla [Glinka]
TTITLE1=Άνευ ερμηνευτού - Prelude from Holberg Suite [Grieg]
TTITLE2=Corelli Franco - O sole mio [Di Capua]
TTITLE3=Άνευ ερμηνευτού - The aquarium [Saint-Saëns]
TTITLE4=Άνευ ερμηνευτού - Danse macabre [Saint-Saëns]
TTITLE5=Χορωδία υπό Riccardo Muti - Triumphal march from "Aida" [Verdi]
TTITLE6=Άνευ ερμηνευτού - Lullaby from "Dolly Suite" [Faure]
TTITLE7=Άνευ ερμηνευτού - Fantasia on  a theme of Thomas Tallis [Vaughan Willi
TTITLE7=ams]
TTITLE8=Άνευ ερμηνευτού - Light cavalry [Suppe]
TTITLE9=Άνευ ερμηνευτού - The swan [Saint-Saëns]
TTITLE10=Άνευ ερμηνευτού - Nocturne [Borodin]
TTITLE11=Άνευ ερμηνευτού - Moonlight sonata [Beethoven]
TTITLE12=Gomez Jill - Shepherd's song [Canteloube]
TTITLE13=Domingo Placido - The stars shone brightly from "Tosca" [Puccini]
TTITLE14=Άνευ ερμηνευτού - Memories of the Alhambra [Tarrega]
TTITLE15=Άνευ ερμηνευτού - String quartet [Ravel]
TTITLE16=Gedda Nicolai - Che Gelida Manin from "La Bohhme" [Puccini]
TTITLE17=Geoflrey Mitchell Choir - Neptune from "The Planets" [Holst]
EXTD=YEAR: 1993 ID3G: 32\n
EXTT0=
EXTT1=
EXTT2=
EXTT3=
EXTT4=
EXTT5=
EXTT6=
EXTT7=
EXTT8=
EXTT9=
EXTT10=
EXTT11=
EXTT12=
EXTT13=
EXTT14=
EXTT15=
EXTT16=
EXTT17=
PLAYORDER=
